<svg width="44" height="44" viewBox="0 0 44 44" fill="none" xmlns="http://www.w3.org/2000/svg">
<rect width="44" height="44" rx="22" fill="#5F7F8F"/>
<g clip-path="url(#clip0_309_163)">
<path d="M27.9587 15.5833H27.9695M16.5837 10.3333H27.417C30.4085 10.3333 32.8337 12.945 32.8337 16.1667V27.8333C32.8337 31.055 30.4085 33.6667 27.417 33.6667H16.5837C13.5921 33.6667 11.167 31.055 11.167 27.8333V16.1667C11.167 12.945 13.5921 10.3333 16.5837 10.3333ZM26.3337 21.265C26.4674 22.2359 26.3134 23.2276 25.8936 24.0988C25.4738 24.9701 24.8096 25.6766 23.9954 26.1179C23.1813 26.5593 22.2586 26.7129 21.3588 26.5569C20.4589 26.401 19.6276 25.9434 18.9831 25.2494C18.3386 24.5553 17.9137 23.66 17.7689 22.6909C17.6241 21.7218 17.7667 20.7282 18.1765 19.8514C18.5863 18.9747 19.2424 18.2594 20.0514 17.8073C20.8604 17.3552 21.7812 17.1893 22.6828 17.3333C23.6025 17.4802 24.4539 17.9417 25.1113 18.6497C25.7687 19.3577 26.1973 20.2746 26.3337 21.265Z" stroke="#141218" stroke-width="4" stroke-linecap="round" stroke-linejoin="round"/>
</g>
<defs>
<clipPath id="clip0_309_163">
<rect width="26" height="28" fill="white" transform="translate(9 8)"/>
</clipPath>
</defs>
</svg>
